<?xml version="1.0" encoding="UTF-8" standalone="no"?>
<!-- Created with Inkscape (http://www.inkscape.org/) -->

<svg
   width="800"
   height="600"
   viewBox="0 0 211.66666 158.75"
   version="1.1"
   id="svg5"
   xml:space="preserve"
   xmlns="http://www.w3.org/2000/svg"
   xmlns:svg="http://www.w3.org/2000/svg"><defs
     id="defs2"><clipPath
   id="clipPath5588">
      <path
   d="M 0,0 H 14 V 14.117188 H 0 Z m 0,0"
   id="path8914" />
    </clipPath>
  <clipPath
   id="clipPath9776">
      <path
   d="M 1,0 H 13 V 14.117188 H 1 Z m 0,0"
   id="path8674" />
    </clipPath>
  <clipPath
   id="clipPath7590">
      <path
   d="M 0,0 H 16 V 14.117188 H 0 Z m 0,0"
   id="path4744" />
    </clipPath>
  <clipPath
   id="clipPath5306">
      <path
   d="M 0,0 H 15 V 14.117188 H 0 Z m 0,0"
   id="path8441" />
    </clipPath>
  <clipPath
   id="clipPath2149">
      <path
   d="M 1,0 H 15.960938 V 14.117188 H 1 Z m 0,0"
   id="path3707" />
    </clipPath>
  <clipPath
   id="clipPath8501">
      <path
   d="M 0,0 H 17 V 14.117188 H 0 Z m 0,0"
   id="path1336" />
    </clipPath>
  <clipPath
   id="clipPath6200">
      <path
   d="M 0,0 H 16 V 14.117188 H 0 Z m 0,0"
   id="path8218" />
    </clipPath>
  <clipPath
   id="clipPath3345">
      <path
   d="M 0,0 H 15.90625 V 14.117188 H 0 Z m 0,0"
   id="path2071" />
    </clipPath>
  </defs><g
     id="layer1"><g
       id="g1636"
       transform="translate(-1.2210713,-3.8321755)"><path
         style="fill:none;stroke:#000000;stroke-width:1.71979;stroke-linecap:round;stroke-linejoin:round;stroke-dasharray:none;stroke-opacity:1"
         d="M 168.66761,118.81139 8.9497015,118.52045 80.048562,25.206918 197.28744,148.60257 40.852154,76.650151"
         id="path910" /><g
         transform="matrix(2.1125757,0,0,2.1125757,126.2807,125.73679)"
         id="g1142"><g
   id="g1140"
   transform="matrix(0.352778,0,0,0.352778,-0.347266,-0.00339564)">
    <g
   clip-path="url(#clipPath7590)"
   clip-rule="nonzero"
   id="g1138">
      <g
   style="fill:#000000;fill-opacity:1"
   id="g1136">
        <g
   id="g1134"
   transform="translate(0,14.119)">
          <path
   style="stroke:none"
   d="m 7.5625,-12.703125 c 0.1875,-0.765625 0.265625,-0.8125 1.078125,-0.8125 H 11.3125 c 2.34375,0 2.34375,1.984375 2.34375,2.171875 0,1.671875 -1.671875,3.796875 -4.40625,3.796875 H 6.28125 Z M 11.046875,-7.375 c 2.25,-0.40625 4.296875,-1.984375 4.296875,-3.875 0,-1.625 -1.421875,-2.859375 -3.75,-2.859375 H 4.953125 c -0.390625,0 -0.578125,0 -0.578125,0.390625 0,0.203125 0.1875,0.203125 0.5,0.203125 1.265625,0 1.265625,0.171875 1.265625,0.40625 0,0.03125 0,0.15625 -0.09375,0.46875 L 3.265625,-1.53125 c -0.1875,0.71875 -0.234375,0.9375 -1.671875,0.9375 -0.390625,0 -0.609375,0 -0.609375,0.359375 C 0.984375,0 1.109375,0 1.53125,0 h 7.078125 c 3.171875,0 5.609375,-2.390625 5.609375,-4.484375 0,-1.6875 -1.5,-2.71875 -3.171875,-2.890625 z M 8.125,-0.59375 H 5.328125 c -0.28125,0 -0.328125,0 -0.453125,-0.03125 -0.234375,-0.015625 -0.25,-0.0625 -0.25,-0.21875 0,-0.140625 0.046875,-0.265625 0.078125,-0.453125 L 6.15625,-7.125 h 3.875 c 2.4375,0 2.4375,2.265625 2.4375,2.4375 0,1.984375 -1.796875,4.09375 -4.34375,4.09375 z m 0,0"
   id="path1132" />
        </g>
      </g>
    </g>
  </g>
</g><g
         transform="matrix(2.1125757,0,0,2.1125757,2.9195816,122.58457)"
         id="g1195"><g
   id="surface1"
   transform="matrix(0.352778,0,0,0.352778,-0.248047,0.222603)">
    <g
   clip-path="url(#clipPath5306)"
   clip-rule="nonzero"
   id="g19">
      <g
   style="fill:#000000;fill-opacity:1"
   id="g17">
        <g
   id="use15"
   transform="translate(0,14.119)">
          <path
   style="stroke:none"
   d="M 3.515625,-2.296875 C 2.78125,-1.078125 2.09375,-0.65625 1.09375,-0.59375 0.875,-0.578125 0.703125,-0.578125 0.703125,-0.203125 0.703125,-0.078125 0.8125,0 0.953125,0 1.328125,0 2.25,-0.046875 2.625,-0.046875 3.21875,-0.046875 3.890625,0 4.46875,0 c 0.109375,0 0.359375,0 0.359375,-0.390625 0,-0.1875 -0.15625,-0.203125 -0.28125,-0.203125 -0.484375,-0.046875 -0.875,-0.21875 -0.875,-0.703125 0,-0.296875 0.125,-0.515625 0.390625,-0.96875 L 5.640625,-4.875 h 5.265625 c 0.01563,0.1875 0.01563,0.34375 0.04687,0.53125 0.0625,0.546875 0.296875,2.6875 0.296875,3.078125 0,0.625 -1.046875,0.671875 -1.375,0.671875 -0.234375,0 -0.453125,0 -0.453125,0.359375 C 9.421875,0 9.609375,0 9.734375,0 10.078125,0 10.5,-0.046875 10.84375,-0.046875 h 1.171875 C 13.28125,-0.046875 14.1875,0 14.21875,0 c 0.140625,0 0.359375,0 0.359375,-0.390625 0,-0.203125 -0.1875,-0.203125 -0.484375,-0.203125 -1.140625,0 -1.15625,-0.1875 -1.21875,-0.8125 L 11.609375,-14.296875 C 11.5625,-14.703125 11.484375,-14.75 11.25,-14.75 c -0.203125,0 -0.328125,0.04687 -0.515625,0.359375 z m 2.46875,-3.171875 4.15625,-6.953125 0.703125,6.953125 z m 0,0"
   id="path26" />
        </g>
      </g>
    </g>
  </g>
</g><g
         transform="matrix(2.1125757,0,0,2.1125757,175.27475,114.56938)"
         id="g1269"><g
   id="g1267"
   transform="matrix(0.352778,0,0,0.352778,-0.363802,0.150945)">
    <g
   clip-path="url(#clipPath2149)"
   clip-rule="nonzero"
   id="g1265">
      <g
   style="fill:#000000;fill-opacity:1"
   id="g1263">
        <g
   id="g1261"
   transform="translate(0,14.119)">
          <path
   style="stroke:none"
   d="m 15.4375,-14.359375 c 0,-0.1875 -0.15625,-0.1875 -0.1875,-0.1875 -0.04687,0 -0.125,0 -0.296875,0.21875 l -1.421875,1.734375 c -0.71875,-1.25 -1.859375,-1.953125 -3.40625,-1.953125 -4.46875,0 -9.09375,4.53125 -9.09375,9.375 0,3.453125 2.421875,5.609375 5.4375,5.609375 1.65625,0 3.09375,-0.703125 4.296875,-1.71875 1.796875,-1.5 2.328125,-3.515625 2.328125,-3.671875 0,-0.1875 -0.15625,-0.1875 -0.21875,-0.1875 -0.1875,0 -0.21875,0.125 -0.25,0.203125 -0.953125,3.21875 -3.75,4.765625 -5.8125,4.765625 -2.1875,0 -4.078125,-1.390625 -4.078125,-4.328125 0,-0.671875 0.203125,-4.265625 2.53125,-6.96875 1.140625,-1.3125 3.078125,-2.46875 5.046875,-2.46875 2.265625,0 3.28125,1.875 3.28125,3.984375 0,0.53125 -0.0625,0.984375 -0.0625,1.078125 0,0.171875 0.203125,0.171875 0.265625,0.171875 0.234375,0 0.25,-0.015625 0.328125,-0.390625 z m 0,0"
   id="path1259" />
        </g>
      </g>
    </g>
  </g>
</g><g
         transform="matrix(2.1125757,0,0,2.1125757,25.404135,62.538796)"
         id="g1359"><g
   id="g1357"
   transform="matrix(0.352778,0,0,0.352778,-0.341753,-0.00339564)">
    <g
   clip-path="url(#clipPath8501)"
   clip-rule="nonzero"
   id="g1355">
      <g
   style="fill:#000000;fill-opacity:1"
   id="g1353">
        <g
   id="g1351"
   transform="translate(0,14.119)">
          <path
   style="stroke:none"
   d="m 3.25,-1.53125 c -0.1875,0.71875 -0.234375,0.9375 -1.6875,0.9375 -0.390625,0 -0.59375,0 -0.59375,0.359375 C 0.96875,0 1.09375,0 1.515625,0 H 8.0625 c 4.171875,0 8.234375,-4.3125 8.234375,-8.921875 0,-2.96875 -1.78125,-5.1875 -4.734375,-5.1875 h -6.625 c -0.390625,0 -0.578125,0 -0.578125,0.390625 0,0.203125 0.1875,0.203125 0.5,0.203125 1.25,0 1.25,0.171875 1.25,0.40625 0,0.03125 0,0.15625 -0.078125,0.46875 z m 4.34375,-11.171875 c 0.1875,-0.765625 0.28125,-0.8125 1.078125,-0.8125 h 2.28125 c 1.9375,0 3.71875,1.0625 3.71875,3.90625 0,1.03125 -0.421875,4.625 -2.421875,6.90625 -0.578125,0.671875 -2.15625,2.109375 -4.53125,2.109375 H 5.375 c -0.296875,0 -0.328125,0 -0.453125,-0.03125 -0.234375,-0.015625 -0.25,-0.0625 -0.25,-0.21875 0,-0.140625 0.03125,-0.265625 0.078125,-0.453125 z m 0,0"
   id="path1349" />
        </g>
      </g>
    </g>
  </g>
</g><g
         transform="matrix(2.1125757,0,0,2.1125757,72.240416,7.6643494)"
         id="g1465"><g
   id="g1463"
   transform="matrix(0.352778,0,0,0.352778,-0.336241,-0.0199321)">
    <g
   clip-path="url(#clipPath6200)"
   clip-rule="nonzero"
   id="g1461">
      <g
   style="fill:#000000;fill-opacity:1"
   id="g1459">
        <g
   id="g1457"
   transform="translate(0,14.119)">
          <path
   style="stroke:none"
   d="M 14.359375,-4.796875 C 14.375,-4.859375 14.4375,-5 14.4375,-5.078125 c 0,-0.109375 -0.07813,-0.203125 -0.203125,-0.203125 -0.07813,0 -0.125,0.015625 -0.1875,0.078125 C 14,-5.1875 14,-5.140625 13.8125,-4.734375 12.59375,-1.84375 11.71875,-0.59375 8.40625,-0.59375 H 5.390625 c -0.28125,0 -0.328125,0 -0.453125,-0.03125 -0.234375,-0.015625 -0.25,-0.0625 -0.25,-0.21875 0,-0.140625 0.046875,-0.265625 0.078125,-0.453125 L 6.203125,-7 h 2.03125 c 1.625,0 1.75,0.34375 1.75,0.96875 0,0.203125 0,0.390625 -0.15625,1.015625 -0.03125,0.078125 -0.0625,0.15625 -0.0625,0.21875 0,0.15625 0.109375,0.21875 0.234375,0.21875 0.1875,0 0.203125,-0.15625 0.28125,-0.4375 l 1.1875,-4.796875 c 0,-0.109375 -0.09375,-0.203125 -0.21875,-0.203125 -0.171875,0 -0.203125,0.078125 -0.28125,0.375 C 10.5625,-8.0625 10.140625,-7.59375 8.296875,-7.59375 H 6.34375 L 7.625,-12.6875 c 0.1875,-0.71875 0.21875,-0.78125 1.078125,-0.78125 h 2.953125 c 2.53125,0 3.046875,0.6875 3.046875,2.25 0,0.01563 0,0.59375 -0.07813,1.28125 -0.01563,0.078125 -0.04687,0.203125 -0.04687,0.25 0,0.171875 0.109375,0.234375 0.234375,0.234375 0.140625,0 0.21875,-0.09375 0.265625,-0.46875 l 0.4375,-3.609375 c 0,-0.0625 0.03125,-0.265625 0.03125,-0.3125 C 15.546875,-14.0625 15.375,-14.0625 15,-14.0625 H 4.921875 c -0.390625,0 -0.609375,0 -0.609375,0.375 0,0.21875 0.15625,0.21875 0.5,0.21875 1.28125,0 1.28125,0.140625 1.28125,0.375 0,0.09375 -0.015625,0.1875 -0.078125,0.40625 L 3.21875,-1.53125 C 3.03125,-0.8125 3,-0.59375 1.546875,-0.59375 c -0.390625,0 -0.59375,0 -0.59375,0.359375 C 0.953125,0 1.078125,0 1.484375,0 h 10.375 c 0.453125,0 0.46875,-0.015625 0.609375,-0.34375 z m 0,0"
   id="path1455" />
        </g>
      </g>
    </g>
  </g>
</g><g
         transform="matrix(2.1125757,0,0,2.1125757,200.52255,148.27099)"
         id="g1587"><g
   id="g1585"
   transform="matrix(0.352778,0,0,0.352778,-0.336241,-0.0199321)">
    <g
   clip-path="url(#clipPath3345)"
   clip-rule="nonzero"
   id="g1583">
      <g
   style="fill:#000000;fill-opacity:1"
   id="g1581">
        <g
   id="g1579"
   transform="translate(0,14.119)">
          <path
   style="stroke:none"
   d="M 6.140625,-6.734375 H 8.125 c 1.5625,0 1.6875,0.359375 1.6875,0.953125 0,0.265625 -0.046875,0.5625 -0.140625,1.015625 -0.046875,0.078125 -0.0625,0.1875 -0.0625,0.21875 0,0.140625 0.078125,0.234375 0.21875,0.234375 0.171875,0 0.1875,-0.09375 0.265625,-0.421875 l 1.203125,-4.8125 c 0,-0.078125 -0.0625,-0.203125 -0.203125,-0.203125 -0.1875,0 -0.203125,0.078125 -0.296875,0.4375 -0.421875,1.546875 -0.84375,1.984375 -2.640625,1.984375 h -1.875 L 7.625,-12.6875 c 0.1875,-0.71875 0.21875,-0.78125 1.078125,-0.78125 h 2.765625 c 2.578125,0 2.953125,0.765625 2.953125,2.234375 0,0.125 0,0.578125 -0.0625,1.109375 -0.03125,0.09375 -0.0625,0.359375 -0.0625,0.4375 0,0.171875 0.09375,0.234375 0.21875,0.234375 0.15625,0 0.234375,-0.09375 0.28125,-0.46875 l 0.421875,-3.609375 c 0,-0.0625 0.04687,-0.265625 0.04687,-0.3125 0,-0.21875 -0.1875,-0.21875 -0.5625,-0.21875 H 4.92187 c -0.390625,0 -0.609375,0 -0.609375,0.375 0,0.21875 0.15625,0.21875 0.5,0.21875 1.28125,0 1.28125,0.140625 1.28125,0.375 0,0.09375 -0.015625,0.1875 -0.078125,0.40625 L 3.21875,-1.53125 C 3.03125,-0.8125 3,-0.59375 1.546875,-0.59375 c -0.390625,0 -0.59375,0 -0.59375,0.359375 C 0.953125,0 1.140625,0 1.265625,0 1.65625,0 2.0625,-0.046875 2.453125,-0.046875 h 2.6875 C 5.59375,-0.046875 6.09375,0 6.546875,0 c 0.1875,0 0.4375,0 0.4375,-0.375 0,-0.21875 -0.125,-0.21875 -0.578125,-0.21875 -1.640625,0 -1.671875,-0.15625 -1.671875,-0.453125 0,-0.109375 0.03125,-0.28125 0.078125,-0.421875 z m 0,0"
   id="path1577" />
        </g>
      </g>
    </g>
  </g>
</g></g></g></svg>
